<svg id="android" data-name="Слой 1" xmlns="http://www.w3.org/2000/svg" viewBox="0 0 82.66 90.37"><defs><style>.a6e1bae9-420f-4086-94d1-eb1881108029{fill-rule:evenodd;}</style></defs><title>android</title><g id="a74d9a8b-6df0-4ea4-80fb-c27253d43e13" data-name="android"><path id="a0c95145-efe6-4133-8ddb-ae2f5c0ccfba" data-name="Forma 1" class="a6e1bae9-420f-4086-94d1-eb1881108029" d="M58.7,8.06a45.28,45.28,0,0,0,3.62-3.84A2,2,0,0,0,59.47,1.4a47.47,47.47,0,0,1-3.9,4.12,24,24,0,0,0-16-3.79A27.18,27.18,0,0,0,29.16,4.87c-1-1.27-1.92-2.58-2.85-3.89A2,2,0,0,0,23.58.25h0A2,2,0,0,0,22.84,3h0c1,1.36,1.95,2.71,3,4-.46-.6-6.42,6.9-6.85,7.64C17.7,16.81,13.5,25,16.11,27.05c1.11.87,3.33.26,4.68.27,2.1,0,4.2.08,6.29.13,4.3.11,8.6.26,12.9.38,8.48.26,17,.49,25.43.42a1.84,1.84,0,0,0,1.86-1.41,2,2,0,0,0,.25-1.45C66.17,18.46,63.18,12.35,58.7,8.06ZM19.86,23.31c1.77-9.55,10-16.3,19.69-17.59C52.41,4,60.27,13,63.15,24.26,48.71,24.28,34.29,23.55,19.86,23.31Zm45.55,6.93c-15.73,0-31.46-.16-47.2-.17a1.84,1.84,0,0,0-1.87,1.49,2,2,0,0,0-.47,1.17c-.75,10-.24,20-.67,29.93a2.09,2.09,0,0,0,0,.5,2.16,2.16,0,0,0,0,.36,8.84,8.84,0,0,0,9.61,7.34c-.69,0,0,11.75.11,12.48.27,2.55.9,5.43,3.56,6.51,3.06,1.23,6.69-.5,8.7-2.82,3.62-4.18,3.3-10.51,3-15.66,1,0,2-.05,3-.06-.69,0-.54,11.06-.3,12.14,1,4.8,5.66,8.23,10.46,6.4s5.71-6.2,5.5-10.69c-.12-2.54-.19-5.16-.48-7.68A8.81,8.81,0,0,0,62.82,70c2.19-1.6,3-4,3.26-6.64a1.82,1.82,0,0,0,0-.33c.81-10,1.14-20,1.17-30.08a2,2,0,0,0-1.13-2.54,2.17,2.17,0,0,0-.71-.13ZM62.07,63v.3h0c-.33,3.57-3,4.44-6.19,4.16-1.82-.16-2.34,1.78-1.59,3,.68,5.42,3,14.51-3.87,16.08-6.64-2-3.18-12-3.08-17.1a1.91,1.91,0,0,0-1.82-2h-.05a1.68,1.68,0,0,0-.59.08c-1.87.4-4.43-.29-6.41-.13l-.42.07a1.77,1.77,0,0,0-1.92,1.62,1.61,1.61,0,0,0,0,.31c.25,4.77,2.39,15.89-4.69,16.62h-.17c-5.15-2.69-2.22-12.92-2.34-17.49A1.94,1.94,0,0,0,27,66.73a2,2,0,0,0-.78,0,7.72,7.72,0,0,1-4.68-.29c-1.47-.7-2-2.2-2.33-3.68v-.09c.41-9.53,0-19.07.59-28.59,14.47,0,28.94.14,43.41.16C63.17,43.83,62.84,53.42,62.07,63ZM80.23,28.06a2.13,2.13,0,0,0-.58-.54,6.69,6.69,0,0,0-4-.95,2.09,2.09,0,0,0-.7-.15A5.48,5.48,0,0,0,69,31a4,4,0,0,0,0,.49,2,2,0,0,0-.2.87q-.33,11.56.5,23.11c.83,11.54,0,0,0,.06a1.31,1.31,0,0,0,0,.28,6.82,6.82,0,0,0,2.56,5.43,7.2,7.2,0,0,0,5.51.84h.15a2.07,2.07,0,0,0,.64-.2A6.78,6.78,0,0,0,81.76,57a2,2,0,0,0,0-.42.24.24,0,0,0,0-.12c.76-9.15,1.86-18.73-1.07-27.63A2,2,0,0,0,80.23,28.06ZM78,55a4.77,4.77,0,0,1-.23,1c-.3,1.07-.87,2.22-2,2.24-4.45.07-2.85-17.2-3-20.09-.07-2-.86-5.78.78-7.35,4.26-4.08,4.9,6.92,5,8.53A67.49,67.49,0,0,1,78,55ZM4,28c-4.33,1.87-4,6.56-4,10.49,0,6,.14,12,.59,18v.33c.49,7.61,10.79,9,12.48,1.2a1.84,1.84,0,0,0,0-.41v-.12c.75-9.15,1.85-18.73-1.07-27.63C10.9,26.31,6.64,26.78,4,28ZM9.2,57.15A9,9,0,0,1,9,58l0,.1a5.39,5.39,0,0,1-.3.52c-.13.2-.15.22,0,.07-.12.13-.25.26-.38.38l-.17,0-.15.08H7.77A3.23,3.23,0,0,1,5.37,59a3.27,3.27,0,0,1-.75-2.12h0v-.3c-.49-5.92-.35-11.81-.54-17.73-.06-1.85-.83-5.58.85-7,4.43-3.69,4.83,7.13,5,8.86.31,5.44-.3,10.93-.76,16.4ZM30.27,14a2,2,0,1,0,1.85,2.14,1.41,1.41,0,0,0,0-.29A2,2,0,0,0,30.27,14Zm22.93-.17A2,2,0,1,0,55,16a2.41,2.41,0,0,0,0-.38,2,2,0,0,0-1.84-1.85Z" transform="translate(0.01 0.02)"/></g></svg>