<svg id="apple" data-name="Слой 1" xmlns="http://www.w3.org/2000/svg" viewBox="0 0 479 612.36"><defs><style>.a2b4e21b-e2e3-4146-9786-5c8b8b406070{fill-rule:evenodd;}</style></defs><title>apple</title><g id="a1fc458f-8d89-489e-8b83-11bf38bd42b8" data-name="apple"><g id="a4768eb6-9e4b-4983-b832-bec1eeba59ac" data-name="Слой 1-2"><path class="a2b4e21b-e2e3-4146-9786-5c8b8b406070" d="M333.37,612.36a83,83,0,0,1-47.63-14.6l-.87-.62c-.36-.28-12.1-9-32.07-9-12.5,0-25.59,3.45-38.92,10.27-4,2.48-22.7,13-46.53,13-19.55,0-37.36-6.78-53-20.15C89.7,570.08,8.49,490.71.44,358.5c-3.67-60.2,15.92-117.83,53.74-158.1,34.3-36.54,79.76-52.93,123.2-44.22a215.88,215.88,0,0,1,64.84,23.56c16.75-8.4,58.35-26.62,103.64-26.62,54.12,0,96.18,26.28,121.64,76l5.77,11.27-10.34,7.3c-.54.38-56.12,40.42-55.91,88.84.1,26.4,17.21,51.7,50.87,75.21a48.92,48.92,0,0,1,20.05,31.48c10.83,39.64-63.89,136.6-108.66,161.75l-1.1.57A89.59,89.59,0,0,1,333.37,612.36Zm-30.95-38.48a54.5,54.5,0,0,0,30.95,9.31,64.11,64.11,0,0,0,22.39-4c46.14-26.5,98.74-111.62,94.19-128l-.58-2.35a19.77,19.77,0,0,0-8.11-13.09C399.32,406.37,378,373,377.92,336.51c-.13-48.95,38.66-88.07,57.86-104.44-20.53-33-50.72-49.79-89.92-49.79-49.88,0-96.38,26.55-96.84,26.82l-7.66,4.43-7.46-4.77c-28.68-18.36-61.38-23.85-61.71-23.9a92.16,92.16,0,0,0-18.3-1.86c-28,0-55.89,13.27-78.52,37.38-31.87,33.94-49,84.9-45.9,136.34,7.35,120.77,81.34,193.09,103.84,212.38,10.18,8.72,21.63,13.15,34,13.15a64.69,64.69,0,0,0,31.4-8.73l1.28-.76C217.7,563.61,235.45,559,252.8,559c28.21,0,45.93,12.11,49.62,14.89ZM239.81,156.14A14.55,14.55,0,0,1,225.27,142C225.16,137.88,224,41.69,343.72.79a14.55,14.55,0,0,1,18.47,9.07,14.76,14.76,0,0,1,.69,3.08C363,14.07,374.1,125.8,243.05,155.77A15.33,15.33,0,0,1,239.81,156.14ZM333.09,36.37c-53,24.5-70.36,62.15-76,85.08C314.38,101.25,329.41,60.87,333.09,36.37Z" transform="translate(0 -0.01)"/></g></g></svg>