<svg id="clock" data-name="Capa 1" xmlns="http://www.w3.org/2000/svg" viewBox="0 0 480.05 480"><title>clock</title><path d="M480,471.41l-6.9-89.19a24.1,24.1,0,0,0-23.9-22.2H344v-8a8,8,0,0,0-8-8,8.7,8.7,0,0,0-1.61.16L255.22,360h-30.4l-79.2-15.84a8,8,0,0,0-9.43,6.24A7.91,7.91,0,0,0,136,352v8H30.82A24.1,24.1,0,0,0,6.93,382.21L0,471.41A8,8,0,0,0,7.38,480c.22,0,.43,0,.64,0H472a8,8,0,0,0,8-8C480.05,471.83,480,471.62,480,471.41ZM208.82,464H80V432H64v32H16.66l6.22-80.59A7.94,7.94,0,0,1,30.82,376H136v8a8,8,0,0,0,6.4,7.84l72.8,14.57Zm7.2-73.77-64-12.8V361.78l64,12.8ZM232,376h16v16H232ZM225,464l6.22-56h17.64l6.23,56ZM264,374.58l64-12.8v15.68l-64,12.8ZM416,464V432H400v32H271.22l-6.4-57.6,72.8-14.56A8,8,0,0,0,344,384v-8h105.2a7.94,7.94,0,0,1,7.95,7.42L463.38,464Z" transform="translate(0 -0.02)"/><path d="M240,0A176,176,0,1,0,416,176,176,176,0,0,0,240,0Zm0,336A160,160,0,1,1,400,176,160,160,0,0,1,240,336Z" transform="translate(0 -0.02)"/><path d="M240,24A152,152,0,1,0,392,176,152,152,0,0,0,240,24Zm8,287.6V288H232v23.6A136,136,0,0,1,104.43,184H128V168H104.43a135.82,135.82,0,0,1,271.19,0H352v16h23.6A136,136,0,0,1,248,311.62Z" transform="translate(0 -0.02)"/><path d="M293.68,133.68l-11.31-11.31-26.19,26.18a31.23,31.23,0,0,0-8.16-3.39V48H232v97.14A32,32,0,0,0,208,176a31.62,31.62,0,0,0,4.53,16.16l-10.18,10.19,11.31,11.31,10.18-10.18a31.51,31.51,0,0,0,8.16,3.39V224h16V206.89A32,32,0,0,0,272,176a31.64,31.64,0,0,0-4.52-16.16ZM240,192a16,16,0,0,1-.27-32H240a16,16,0,0,1,0,32Z" transform="translate(0 -0.02)"/></svg>