<svg id="husband" data-name="Layer 1" xmlns="http://www.w3.org/2000/svg" viewBox="0 0 512 397.55"><title>husband</title><path d="M198.78,290.13H173.16L160.63,277.6l-12,12V263.26a70.36,70.36,0,0,0,40.16-63.48V184.67a18.08,18.08,0,1,0,0-34V127.5a70.28,70.28,0,1,0-140.55,0v23.14a18.08,18.08,0,1,0,0,34v15.11a70.34,70.34,0,0,0,40.16,63.48v26.39l-12-12L63.76,290.13H38.15A38.19,38.19,0,0,0,0,328.28v126.5H236.93V328.28A38.2,38.2,0,0,0,198.78,290.13ZM172.19,306.2l-33.65,33.64L127,328.28l33.65-33.64ZM132.52,442.73H104.41V391l14-14.05L132.52,391ZM130,348.36l-11.56,11.56L106.9,348.36l11.56-11.56Zm64.74-186.73a6,6,0,1,1-6,6A6,6,0,0,1,194.76,161.63Zm-76.3-92.36a58.29,58.29,0,0,1,58.23,58.23V129l-15.58-15.58H144.56v6a26.1,26.1,0,0,1-52.2,0v-6H75.81L60.24,129V127.5A58.29,58.29,0,0,1,118.46,69.27ZM42.16,173.68a6,6,0,1,1,6-6A6,6,0,0,1,42.16,173.68Zm18.08,26.1V146.06L80.79,125.5a38.15,38.15,0,0,0,75.34,0l20.56,20.56v53.72a58.23,58.23,0,1,1-116.45,0Zm40.15,67.91a70.36,70.36,0,0,0,36.14,0v34l-18.07,18.07-18.07-18.07Zm9.55,60.59L98.38,339.84,64.74,306.2,76.3,294.64Zm-97.89,0a26.13,26.13,0,0,1,26.1-26.1H51.72l-4,4,62.24,62.24L92.36,386v56.71H52.2V344.35h-12v98.38H12.05ZM224.88,442.73H196.77V344.35H184.72v98.38H144.56V386L127,368.44l62.24-62.24-4-4h13.57a26.13,26.13,0,0,1,26.1,26.1Z" transform="translate(0 -57.22)"/><path d="M487.91,292.83V127.5a70.36,70.36,0,0,0-70.28-70.28H369.44a70.35,70.35,0,0,0-70.27,70.28V292.83a38.2,38.2,0,0,0-24.1,35.45v126.5H512V328.28A38.21,38.21,0,0,0,487.91,292.83ZM311.22,127.5a58.29,58.29,0,0,1,58.22-58.23h48.19a58.29,58.29,0,0,1,58.23,58.23V290.19q-1-.06-2-.06h-50.2V263.26a70.34,70.34,0,0,0,40.16-63.48V149.1l-36.74-36.75L323.26,155.61v44.17a70.36,70.36,0,0,0,40.16,63.48v26.87h-50.2c-.67,0-1.34,0-2,.06ZM393.54,258a58.29,58.29,0,0,1-58.23-58.23V163.64l88.95-37.06,27.5,27.51v45.69A58.29,58.29,0,0,1,393.54,258Zm-18.07,9.68a70.36,70.36,0,0,0,36.14,0v34.49h23.66a42.16,42.16,0,0,1-83.46,0h23.66Zm18.07,82.68a54.12,54.12,0,0,0,42.16-20.19V442.73H351.37V330.18A54.14,54.14,0,0,0,393.54,350.37ZM287.12,328.28a26.13,26.13,0,0,1,26.1-26.1h26.11V442.73H327.28V344.35h-12v98.38H287.12ZM500,442.73H471.84V344.35h-12v98.38H447.75V302.18h26.1a26.13,26.13,0,0,1,26.1,26.1Z" transform="translate(0 -57.22)"/></svg>