<svg id="man" data-name="Capa 1" xmlns="http://www.w3.org/2000/svg" viewBox="0 0 512 509.92"><title>man</title><path d="M241.23,378.89a8.66,8.66,0,0,0-12.1,1.85l-1.07,1.46A8.65,8.65,0,0,0,242,392.46l1.08-1.47A8.66,8.66,0,0,0,241.23,378.89Z" transform="translate(0 -1.04)"/><path d="M243.49,461.24l-22.27-40.48L242,392.45a8.66,8.66,0,0,0-14-10.25L204,415a8.64,8.64,0,0,0-.61,9.29l24.93,45.32h0a8.66,8.66,0,1,0,15.17-8.34Z" transform="translate(0 -1.04)"/><path d="M308,415l-24-32.63a8.66,8.66,0,0,0-14,10.25l20.68,28.17L268.66,461a8.66,8.66,0,0,0,5.43,12.56,8.88,8.88,0,0,0,2.16.27,8.66,8.66,0,0,0,7.58-4.48l24.78-45.05A8.64,8.64,0,0,0,308,415Z" transform="translate(0 -1.04)"/><path d="M321.72,278.93a8.66,8.66,0,0,0-8.94.54,136.57,136.57,0,0,0-14.2,11.17c-23.29,21.06-45.43,18.21-46.29,18.08a8.44,8.44,0,0,0-1.58-.1c-9.21.23-25.81-8.18-43.37-22-2.69-2.11-5.44-4.12-8.19-6a8.66,8.66,0,0,0-13.5,7.18v29.69a8.7,8.7,0,0,0,3.24,6.76c.25.19.5.37.76.54l61.38,41,0,0,.16.11a8.66,8.66,0,0,0,8.88.41,7.68,7.68,0,0,0,.78-.47l.09-.06.1-.07,61.24-40.92a8.3,8.3,0,0,0,.71-.5,8.66,8.66,0,0,0,3.33-6.82V286.6A8.66,8.66,0,0,0,321.72,278.93Zm-12.68,34-53,35.44-53-35.44V305c12.92,9.39,31.92,20.9,47.4,20.89h.1c5.2.58,31.71,2.14,58.58-21.42v8.4Z" transform="translate(0 -1.04)"/><path d="M264.54,357.34a8.66,8.66,0,0,0-15.52-3.7l-19.89,27.1a8.66,8.66,0,1,0,14,10.25l19.8-27a8.67,8.67,0,0,0,1.78-5.26A8.54,8.54,0,0,0,264.54,357.34Z" transform="translate(0 -1.04)"/><path d="M387.88,78.27c-.17-1.35-4.23-30.62-31.77-42.16a29.81,29.81,0,0,0-2.55-18.18c-4.39-8.64-13-14.26-25.73-16.73A8.24,8.24,0,0,0,326.18,1H210A85.66,85.66,0,0,0,124.43,86.6v45.59a52.26,52.26,0,0,0,11.4,32.62c3.65,4.53,8.13,12.46,8.81,24.44a8.66,8.66,0,0,0,17.3-.49V129.32c5.88-24.31,25.94-29,29.39-29.68h37.58a42,42,0,0,0,12.92-2c7.15-2.29,18.49-6.51,26.74-9.64a25.08,25.08,0,0,1,17.21-.22L326,101.9c20.11,7.42,23.7,25.08,24.15,27.85v71.34a8.64,8.64,0,0,0,8,8.62c.22,0,.43,0,.65,0a8.65,8.65,0,0,0,8.55-7.38c0-.22,3.49-22.55,14.64-40.42A38.8,38.8,0,0,0,388,141.42V79.36A8.08,8.08,0,0,0,387.88,78.27Zm-17.24,63.15a21.53,21.53,0,0,1-3.16,11.11V129.16c0-.31,0-.63-.05-.94a54,54,0,0,0-35.5-42.6l-.12,0L291.52,71.44a42.45,42.45,0,0,0-29.1.37c-11.55,4.39-20.5,7.62-25.87,9.34a25.15,25.15,0,0,1-7.64,1.18H190.63a8.27,8.27,0,0,0-1.11.07c-1.47.19-36,5.1-44.68,44.05a8.53,8.53,0,0,0-.21,1.88v17.82a35.13,35.13,0,0,1-2.88-14V86.6A68.31,68.31,0,0,1,210,18.36H325.31c4.77,1,10.57,3.1,12.78,7.35,2.69,5.19-.38,12.35-.38,12.35a8.66,8.66,0,0,0,5.81,12.1c22,5.3,26.53,26.44,27.12,29.86v61.4Z" transform="translate(0 -1.04)"/><path d="M367.43,128.22a54,54,0,0,0-35.5-42.6l-.12,0L291.52,71.44a42.49,42.49,0,0,0-29.1.36c-11.55,4.39-20.5,7.63-25.87,9.35a25.15,25.15,0,0,1-7.64,1.18H190.63a8.27,8.27,0,0,0-1.11.07c-1.47.19-36,5.1-44.68,44a8.55,8.55,0,0,0-.21,1.89v74.61c.06,2.58,1.89,63.63,44.07,91.55l.21.15.56.38c2.4,1.63,4.82,3.39,7.18,5.25,12.29,9.64,35.44,25.67,53.71,25.67h.1a48,48,0,0,0,5.17.25c10.35,0,32.44-2.71,54.56-22.71a119.67,119.67,0,0,1,12.42-9.76l.64-.45.64-.45c14.07-9.45,38.44-33.83,43.56-91q0-.39,0-.78V129.16C367.48,128.85,367.46,128.54,367.43,128.22Zm-17.26,72.47c-4.72,51.56-26.69,71.55-35.93,77.76l-1,.68-.48.34a136.79,136.79,0,0,0-14.2,11.16c-23.21,21-45.27,18.23-46.35,18.08a9.62,9.62,0,0,0-1.52-.09c-9.21.24-25.81-8.18-43.37-22-2.69-2.11-5.44-4.12-8.19-6l-.21-.15-.66-.46c-34-22.53-36.26-75.25-36.34-77.45v-73.3c5.9-24.4,26.08-29.07,29.37-29.68h37.6a42,42,0,0,0,12.92-2c7.15-2.29,18.49-6.51,26.74-9.64a25.08,25.08,0,0,1,17.21-.22L326,101.9c20.11,7.42,23.7,25.08,24.15,27.85v70.94Z" transform="translate(0 -1.04)"/><path d="M263.74,354.9A8.65,8.65,0,0,0,249,353.65l-20.73,28.24a8.65,8.65,0,0,0,13.94,10.26L263,364a9,9,0,0,0,1.69-5.24A8.68,8.68,0,0,0,263.74,354.9Z" transform="translate(0 -1.04)"/><path d="M264.3,494.28a8.66,8.66,0,0,0-12.1-.41l-2,1.81a8.67,8.67,0,0,0-1.72,10.61l.07.11a8.64,8.64,0,0,0,6.36,4.35,8.06,8.06,0,0,0,1.2.08,8.69,8.69,0,0,0,6.12-2.53l1.91-1.92A8.65,8.65,0,0,0,264.3,494.28Z" transform="translate(0 -1.04)"/><path d="M261.78,495.68l-2-1.81a8.66,8.66,0,0,0-12,12.51l1.92,1.92a8.63,8.63,0,0,0,6.12,2.54,8.45,8.45,0,0,0,1.22-.09,8.67,8.67,0,0,0,6.37-4.41l.06-.11A8.66,8.66,0,0,0,261.78,495.68Z" transform="translate(0 -1.04)"/><path d="M261.92,495.82h0a8.64,8.64,0,0,0-11.81,0l0,0a8.65,8.65,0,0,0-.27,12.53l.09.09a8.67,8.67,0,0,0,12.23,0l.09-.1a8.65,8.65,0,0,0-.29-12.51Z" transform="translate(0 -1.04)"/><path d="M258.81,350.39a8.65,8.65,0,1,0,6,8.25v0A8.64,8.64,0,0,0,258.81,350.39Z" transform="translate(0 -1.04)"/><path d="M263,353.57l-.07-.1a8.66,8.66,0,0,0-15.62,5.15v.15a8.69,8.69,0,1,0,15.69-5.2Z" transform="translate(0 -1.04)"/><path d="M359,326.38a8.68,8.68,0,0,0-5.18-5.09L320.61,309.4a6,6,0,0,0-.82-.25,8.62,8.62,0,0,0-6.91,1.2l-61.5,41.09,0,0,4.83,7.18-4.94-7.1a8.66,8.66,0,0,0-2.2,12.34l45,61.32a8.65,8.65,0,0,0,7,3.54l.57,0a8.67,8.67,0,0,0,7-4.47l49.86-90.65A8.64,8.64,0,0,0,359,326.38ZM300,404l-31.65-43.1,50.54-33.78,19.54,7Z" transform="translate(0 -1.04)"/><path d="M264.53,357.27a8.62,8.62,0,0,0-3.71-5.69l-61.7-41.23a8.64,8.64,0,0,0-6.69-1.26,7.74,7.74,0,0,0-1,.31L158.2,321.29a8.66,8.66,0,0,0-4.67,12.32l49.86,90.65a8.65,8.65,0,0,0,7,4.47l.56,0a8.66,8.66,0,0,0,7-3.54L242,392.45l.06-.08L263,363.89A8.67,8.67,0,0,0,264.53,357.27ZM228.06,382.2l-.06.08L212,404l-38.43-69.87,19.54-7,50.54,33.78Z" transform="translate(0 -1.04)"/><path d="M511.57,474.15,500.4,406.72a59.67,59.67,0,0,0-38.54-46.33l-108-39.09a8.66,8.66,0,0,0-10.69,12l22.55,45.23-22.13.34A8.66,8.66,0,0,0,336,391.55l9.08,17.34-92.9,85a3.45,3.45,0,0,0-.28.26L250,496.06a8.64,8.64,0,0,0-1.47,10.27l.07.13a8.67,8.67,0,0,0,7.59,4.5H480.36a31.64,31.64,0,0,0,31.21-36.81Zm-20.28,14.44a14.33,14.33,0,0,1-10.93,5.06H278.1l83.61-76.49a8.64,8.64,0,0,0,1.82-10.4L357.89,396l21.82-.34a8.67,8.67,0,0,0,7.62-12.52l-19-38.18L456,376.67a42.37,42.37,0,0,1,27.36,32.88L494.49,477h0A14.3,14.3,0,0,1,491.29,488.59Z" transform="translate(0 -1.04)"/><path d="M262,495.89l-.1-.1a8.66,8.66,0,0,0-11.95.32l-.09.09A8.66,8.66,0,0,0,256,511h.19A8.65,8.65,0,0,0,262,495.89Z" transform="translate(0 -1.04)"/><path d="M261.73,495.64a8.66,8.66,0,0,0-13.38,2.27l-.06.11a8.65,8.65,0,0,0,1.37,10.18l0,0a8.64,8.64,0,0,0,12.05.37l.09-.08a8.41,8.41,0,0,0,1.91-2.52A8.76,8.76,0,0,0,261.73,495.64Z" transform="translate(0 -1.04)"/><path d="M262.1,496.16l0,0-.07-.07-1.92-1.92-.28-.26-92.9-85L176,391.55a8.66,8.66,0,0,0-7.54-12.67l-22.13-.34,22.55-45.23a8.66,8.66,0,0,0-10.69-12l-108,39.09a59.7,59.7,0,0,0-38.55,46.33L.43,474.15A31.64,31.64,0,0,0,31.64,511H256a8.66,8.66,0,0,0,6.1-14.8ZM31.64,493.65A14.33,14.33,0,0,1,17.51,477l11.17-67.43A42.34,42.34,0,0,1,56,376.67L143.71,345l-19,38.17a8.66,8.66,0,0,0,7.61,12.52l21.83.34-5.65,10.78a8.67,8.67,0,0,0,1.82,10.4l83.62,76.49Z" transform="translate(0 -1.04)"/><path d="M285.46,389.56a8.64,8.64,0,0,0-1.42-7.23L263,353.64a8.67,8.67,0,0,0-14.23.48l-20.68,28.06a9.2,9.2,0,0,0-.78,1.27,8.66,8.66,0,0,0,.64,8.82l8.81,12.65-9.39,59.14a8.63,8.63,0,0,0,1,5.52l20.1,36.55a8.66,8.66,0,0,0,15.17,0l20.24-36.82a8.57,8.57,0,0,0,1.07-4.17h0a8.8,8.8,0,0,0-.1-1.36l-9.34-58.86,8.71-12.51A8.55,8.55,0,0,0,285.46,389.56ZM256,484l-11.08-20.15,9.46-59.65a8.64,8.64,0,0,0-1.45-6.3l-7.25-10.42,10.35-14,10.4,14.17-7.17,10.29a8.64,8.64,0,0,0-1.45,6.3l9.42,59.38Z" transform="translate(0 -1.04)"/></svg>