<svg id="a45f10cb-1bcd-43be-9bcb-50da8cc6315c" data-name="Слой 1" xmlns="http://www.w3.org/2000/svg" viewBox="0 0 130 84"><defs><style>.a7da1df0-031b-43d5-81f4-66e9c1c16a5b{fill:#fff;}</style></defs><title>problem2</title><g id="b6d42875-ad5b-4831-9934-edb22ad5af03" data-name="Слой 1-2"><path class="a7da1df0-031b-43d5-81f4-66e9c1c16a5b" d="M50,0h80q0,40-.05,80a17.66,17.66,0,0,1-.95,4L102.54,67.72c3.32,0,5.16.24,6.88-.08,1-.2,2.57-1.1,2.81-2,2.75-10.22,5.29-20.5,8-31.38-16.17,0-31.63-.06-47.08.13-1.06,0-2.69,1.75-3,3-1.72,5.9-3.08,11.91-4.57,17.88-1,3.95-2,7.9-3.13,12.52H85.64c.49,2.19.88,3.91,1.21,5.39a31,31,0,0,0-5.39-1.07c-6.82-.12-13.67-.36-20.48,0-4.82.3-7.62-1.9-10.77-6.32H61.32v-1.3a86.87,86.87,0,0,1-8.84-.1c-1.14-.11-3.09-1.3-3.12-2.06-.23-6.25,0-12.52-.09-18.78,0-1.41-.12-3.89-.66-4a13.34,13.34,0,0,0-6.28-.1c-.66.16-1.07,2.51-1.09,3.87-.11,6.88-.05,13.77-.05,22.2-4.42-1.32-8-2.47-11.68-3.45-5.27-1.41-2.64-6.45-4.61-9.55-.61,2.53-1.62,5.9-.41,7.21,3.05,3.29,7.1,5.65,11,8.55l-3.81,7.81A34.74,34.74,0,0,0,27,73.54C16.15,69.6,12,62.76,15.72,51.12c1.37-4.22,2.72-7,7.06-8.53,5.32-1.85,10.4-4.39,16.07-6.85,5.08,3.42,7.18,3.43,13,.16L67,42.43l.48-1.11L54.59,34.94c2.14-3,4.39-4.79,4.63-6.81.55-4.61,0-9.34.12-14C59.58,7.09,56.64,2.35,50,0ZM73.49,2.74c0,4.36,1.14,9-.34,12.44-1.35,3.2-5.52,5.2-8.59,7.85h8.49l.92,4.6h34.7V2.74Z"/><path class="a7da1df0-031b-43d5-81f4-66e9c1c16a5b" d="M26,84H0V0H40c-5.29,2.26-8.56,5.83-8.8,12-.27,6.64-.71,13.16,3.72,18.89,2.23,2.87.69,5-2.14,6.2a57.32,57.32,0,0,1-9.29,3.54c-6.58,1.56-8.91,5.84-9.49,12.18-1,10.6-1.23,10.58-11.58,11.38-.25,0-.48.33-1,.73Z"/><path d="M26,84,1.39,64.92c.55-.4.78-.71,1-.73C12.77,63.39,13,63.41,14,52.78c.58-6.34,2.91-10.62,9.49-12.18a57.32,57.32,0,0,0,9.29-3.54c2.83-1.24,4.37-3.33,2.14-6.2-4.43-5.73-4-12.25-3.72-18.89.2-6.14,3.47-9.71,8.8-12H50c6.68,2.35,9.62,7.09,9.38,14.13-.16,4.66.43,9.39-.12,14-.24,2-2.49,3.8-4.63,6.81l12.88,6.38L67,42.43,51.9,35.9c-5.87,3.27-8,3.26-13-.16-5.67,2.46-10.75,5-16.07,6.85-4.34,1.51-5.69,4.31-7.06,8.53C12,62.76,16.15,69.6,27,73.54a34.48,34.48,0,0,1,4.64,2.58l3.81-7.81c-3.88-2.9-7.93-5.26-11-8.55-1.21-1.31-.2-4.68.41-7.21,2,3.1-.66,8.14,4.61,9.55,3.65,1,7.26,2.13,11.68,3.45,0-8.43-.06-15.32.05-22.2,0-1.36.43-3.71,1.09-3.87a13.34,13.34,0,0,1,6.28.1c.54.13.65,2.61.66,4,0,6.26-.14,12.53.09,18.78,0,.76,2,2,3.12,2.06a86.87,86.87,0,0,0,8.84.1v1.3H50.21c3.15,4.42,5.95,6.62,10.77,6.32,6.81-.41,13.66-.17,20.48,0a31,31,0,0,1,5.39,1.07l-1.21-5.39H62.45c1.15-4.62,2.14-8.57,3.13-12.52,1.49-6,2.85-12,4.57-17.88.35-1.23,2-3,3-3,15.45-.19,30.91-.13,47.08-.13-2.75,10.88-5.29,21.16-8,31.38-.24.88-1.76,1.78-2.81,2-1.72.32-3.56.08-6.88.08L129,84Zm92.13-47.7H72L64.53,66.07H86.91c.8,3.45,1.48,6.44,2.22,9.63l-5.88.6v1h21.17l.16-.68-7.87-1.07L94.5,65.87h16.16ZM7.15,65.12,6.51,67c5.87,4.36,11.64,8.86,17.67,13A12.87,12.87,0,0,0,31,82.17c28.82.14,57.64.1,86.47.08,1.35,0,2.7-.23,5.35-.48L104,70.84l-7-4.13c0,5.49.8,7.76,5.53,7.91,2.59.08,5.09,2.74,7.64,4.24a156.47,156.47,0,0,1-24,1,6.17,6.17,0,0,1-4.28-1.92c-3-3.94-6.88-4.56-11.41-4.19-3.31.28-6.68-.19-10,.12-3.68.35-6.77-.61-8.69-3.64-3.69-5.83-9-3.92-14.06-3.31A10.19,10.19,0,0,0,42,68.2c3.85.61,7.61,4.38,7.1,7.1-.79,4.19-4.13,6-9,5C30.62,78.36,22.82,73,14.67,68.22,12.38,66.83,9.68,66.13,7.15,65.12ZM51.39,34.74l-.32-1.8c-2.21.28-4.44.87-6.61.71-1-.08-2-1.58-3-2.44.94-.71,1.86-2,2.82-2,1.51-.05,3,.91,4.57,1.1s4.3.71,4.9-.11c1.92-2.59,3.07-5.73,4.63-8.88l-4.7,2.06-.46-8.12-15.46.68L37,25.05,32.6,20.2C34.8,26.42,36,33.45,43,36,45.38,36.79,48.58,35.21,51.39,34.74Zm4.09-16.12c3.3-3.16,3-9.87-.56-13.71C51,.69,39.65.55,35.56,4.67c-3.63,3.67-3.61,10.88,0,14.5.79-6.19.76-6.06,6.62-4.92A15.22,15.22,0,0,0,48,13.92C54.37,12.62,54.42,12.59,55.48,18.62ZM34,76.54c3,.83,5.89,2.13,8.88,2.29C44.21,78.9,46,77,47,75.49c.4-.64-.58-2.68-1.46-3.54C40.87,67.44,36.4,69,34,76.54Zm9.39-12,4-.41V40.88l-4,.2Z"/><path d="M73.49,2.74h35.18V27.63H74l-1-4.63H64.56c3.07-2.65,7.24-4.65,8.59-7.85C74.63,11.69,73.49,7.1,73.49,2.74ZM107,4.32H75.75c-2.63,5.3,2.46,12-2.88,15.69l3.3,5.85H107Z"/><path class="a7da1df0-031b-43d5-81f4-66e9c1c16a5b" d="M118.09,36.3l-7.46,29.61H94.47l2.21,9.68,7.87,1.07-.16.68H83.22v-1l5.88-.6c-.74-3.19-1.42-6.18-2.22-9.63H64.53L72,36.3ZM67.14,63.58l1.39.36c1.72-6.61,3.73-13.15,5.06-19.83.75-3.82,2.53-4.68,6.08-4.61,10,.2,19.93.08,29.9,0,1.53,0,3.05-.22,4.58-.33l-.1-1.24q-19.26,0-38.52.06a2.9,2.9,0,0,0-2.27,1.35C71.12,47.43,69.15,55.51,67.14,63.58Z"/><path class="a7da1df0-031b-43d5-81f4-66e9c1c16a5b" d="M7.15,65.12c2.53,1,5.23,1.71,7.55,3.07,8.15,4.75,16,10.14,25.43,12.08,4.86,1,8.2-.78,9-5,.51-2.72-3.25-6.49-7.1-7.1a10.13,10.13,0,0,1-4.32-1.29c5.07-.61,10.37-2.52,14.06,3.31,1.92,3,5,4,8.69,3.64,3.3-.31,6.67.16,10-.12,4.53-.37,8.41.25,11.41,4.19a6.17,6.17,0,0,0,4.28,1.92,156.47,156.47,0,0,0,24-1c-2.55-1.5-5-4.16-7.64-4.24C97.78,74.43,97,72.16,97,66.67l7,4.13,18.84,10.93c-2.65.25-4,.48-5.35.48-28.83,0-57.65.06-86.47-.08A12.85,12.85,0,0,1,24.18,80c-6-4.12-11.8-8.62-17.67-13Z"/><path class="a7da1df0-031b-43d5-81f4-66e9c1c16a5b" d="M51.39,34.74c-2.81.47-6,2-8.35,1.22C36,33.45,34.8,26.42,32.6,20.2L37,25.05l.77-9.12,15.46-.68.46,8.12,4.7-2.06c-1.56,3.15-2.71,6.29-4.63,8.88-.6.82-3.23.32-4.9.11s-3.06-1.15-4.57-1.1c-1,0-1.88,1.3-2.82,2,1,.86,1.91,2.36,3,2.44,2.17.16,4.4-.43,6.61-.71Z"/><path class="a7da1df0-031b-43d5-81f4-66e9c1c16a5b" d="M55.48,18.62c-1.06-6-1.11-6-7.39-4.7a15.22,15.22,0,0,1-5.86.33c-5.86-1.14-5.83-1.27-6.62,4.92-3.66-3.62-3.68-10.83,0-14.5,4-4.12,15.39-4,19.31.24C58.51,8.75,58.78,15.46,55.48,18.62Z"/><path class="a7da1df0-031b-43d5-81f4-66e9c1c16a5b" d="M34,76.54C36.4,69,40.87,67.44,45.51,72c.88.86,1.86,2.9,1.46,3.54-1,1.46-2.76,3.36-4.12,3.29C39.86,78.67,36.93,77.37,34,76.54Z"/><path class="a7da1df0-031b-43d5-81f4-66e9c1c16a5b" d="M43.36,64.54V41.08l4-.2V64.13Z"/><path class="a7da1df0-031b-43d5-81f4-66e9c1c16a5b" d="M107,4.32V25.86H76.17L72.87,20c5.34-3.69.25-10.39,2.88-15.69Zm-4.43,11.33V14.9H79.41v.75Z"/><path d="M67.14,63.58c2-8.07,4-16.15,6.12-24.19A2.91,2.91,0,0,1,75.53,38h38.52l.1,1.24c-1.53.11-3.05.33-4.58.33-10,0-19.94.15-29.9,0-3.55-.07-5.33.79-6.08,4.61C72.26,50.86,70.25,57.4,68.53,64Z"/><path d="M102.52,15.65H79.42V14.9h23.1Z"/></g></svg>