<svg id="b53e6324-e5ac-4dee-aa09-bd561b75de32" data-name="Слой 1" xmlns="http://www.w3.org/2000/svg" viewBox="0 0 100.05 90"><defs><style>.f508609a-d3f9-477d-b2cc-ab2f652e840a{fill:#fff;}</style></defs><title>problem1</title><g id="ff40aa4d-09cd-48ec-87eb-d161ad9b26ba" data-name="Слой 1-2"><path class="f508609a-d3f9-477d-b2cc-ab2f652e840a" d="M0,55V0H59c-.24.44-.69.87-.7,1.31-.13,9.31-.28,18.62-.19,27.93a3.55,3.55,0,0,0,2.35,2.53,71.75,71.75,0,0,0,8.55.12l.08-1.37-8.94-.69v-28H97.73v28.3H83c-8.22,0-13.91,4-16.86,12.39a21.82,21.82,0,0,0,4.92-5C74,33,77.91,31.59,83.26,31.87c5.57.3,11.19-.52,16.79-.85V90H65c-.42-6.47-.8-12.94-1.28-19.41-.54-7.18-2.07-9.79-9.1-11a130.21,130.21,0,0,0-23.24-1.78c-6.55,0-12.92.14-19.13-3.12.32-5.06.88-10.19.81-15.31,0-1.77-1.57-4.92-2.56-5C8.58,34.27,6.25,35.56,4.69,37c-1.05.94-1.15,3-1.54,4.61C2.06,46,1,50.52,0,55ZM24.64,35.85c.45,2.79.7,5.62,1.38,8.35a12.37,12.37,0,0,0,23.91-.08,42.33,42.33,0,0,0,1.12-8.39c.31-8.55-4.49-13.55-12.87-13.66C29.57,22,24.72,27,24.64,35.85Zm-10.38.7c.3,3.14.22,5.7.89,8.05.54,1.89,1.63,4.34,3.15,5,1.29.57,4.87-.72,5.11-1.74.51-2.14.29-5.4-1.08-6.83-3.09-3.27-3.16-5.38,0-8.65,1.38-1.42,1.57-4.7,1.09-6.86-.22-1-3.81-2.26-5.1-1.69-1.53.68-2.68,3.1-3.18,5A46.57,46.57,0,0,0,14.26,36.55Zm51.8-18.62v.84H91.83v-.84ZM92,8.89V8.21H66.09v.68ZM66.06,13v.86H91.93V13Zm.09,9.88-.07.88H78.15v-.88Z" transform="translate(0 0)"/><path class="f508609a-d3f9-477d-b2cc-ab2f652e840a" d="M63,90H56l-.19-13.85-1.48.12a5.52,5.52,0,0,0-.39,1.39c0,4.12,0,8.23.06,12.34H22c1.72-9.63-.39-17.31-10.32-21.43a24.52,24.52,0,0,1-6.59-4.45C3.84,63,2.26,61.07,2.44,59.72c1-7.06,2.3-14.08,3.84-21,.22-1,2.19-1.59,3.36-2.38.46,1.07,1.36,2.2,1.36,3.3a113.54,113.54,0,0,1-.87,11.94c-.5,3.76.47,6.19,4.58,6.6,5.57.55,11.14,1.11,16.72,1.62,7.9.73,15.84,1.14,23.69,2.24,4.15.58,6.4,3.38,6.49,8.07C61.71,76.75,62.49,83.37,63,90Z" transform="translate(0 0)"/><path class="f508609a-d3f9-477d-b2cc-ab2f652e840a" d="M20,90H0V62c3.29,2.71,6.21,6.21,10,8C18.85,74.16,21.67,80.81,20,90Z" transform="translate(0 0)"/><path d="M20,90c1.67-9.19-1.15-15.84-10-20-3.79-1.79-6.71-5.29-10-8V55c1-4.48,2.06-9,3.15-13.45.39-1.6.49-3.67,1.54-4.61,1.56-1.39,3.89-2.68,5.81-2.57,1,.06,2.53,3.21,2.56,5,.07,5.12-.49,10.25-.81,15.31,6.21,3.26,12.58,3.15,19.13,3.12a130.21,130.21,0,0,1,23.24,1.78c7,1.24,8.56,3.85,9.1,11,.48,6.48.86,13,1.28,19.42H63c-.51-6.63-1.29-13.25-1.43-19.89-.09-4.69-2.34-7.49-6.49-8.07-7.85-1.1-15.79-1.51-23.69-2.24-5.58-.51-11.15-1.07-16.72-1.62-4.11-.41-5.08-2.84-4.58-6.6A116.35,116.35,0,0,0,11,39.64c0-1.1-.86-2.23-1.32-3.35-1.17.79-3.14,1.39-3.36,2.38-1.54,7-2.89,14-3.84,21C2.3,61,3.88,63,5.13,64.07a24.52,24.52,0,0,0,6.59,4.45C21.61,72.69,23.72,80.37,22,90Z" transform="translate(0 0)"/><path d="M100,31c-5.6.33-11.22,1.15-16.79.85-5.35-.28-9.28,1.09-12.2,5.65a21.82,21.82,0,0,1-4.92,5C69,34.16,74.73,30.16,83,30.16H97.73V1.86H60.15v28l8.94.69L69,31.89a71.75,71.75,0,0,1-8.55-.12,3.55,3.55,0,0,1-2.35-2.53c-.09-9.31.06-18.62.19-27.93,0-.44.46-.87.7-1.31h41Z" transform="translate(0 0)"/><path d="M54,90c0-4.11-.07-8.22-.06-12.34a5.52,5.52,0,0,1,.39-1.39l1.48-.12L56,90Z" transform="translate(0 0)"/><path d="M24.64,35.85C24.72,27,29.57,22,38.18,22.07c8.38.11,13.18,5.11,12.87,13.66a42.33,42.33,0,0,1-1.12,8.39A12.37,12.37,0,0,1,26,44.2C25.34,41.47,25.09,38.64,24.64,35.85ZM27,35.5c.22,10.18,4,15.57,11,15.59,7.24,0,11.34-6.31,11-17-.18-6.11-4.68-9.9-11.47-9.66C30.47,24.64,26.83,28.49,27,35.5Z" transform="translate(0 0)"/><path d="M14.26,36.55a46.57,46.57,0,0,1,.88-7.72c.5-1.89,1.65-4.31,3.18-5,1.29-.57,4.88.71,5.1,1.69.48,2.16.29,5.44-1.09,6.86-3.16,3.27-3.09,5.38,0,8.65,1.37,1.43,1.59,4.69,1.08,6.83-.24,1-3.82,2.31-5.11,1.74-1.52-.67-2.61-3.12-3.15-5C14.48,42.25,14.56,39.69,14.26,36.55Zm6-10.69-2.68.36V47.49c4.7-.36,4.8-2.8,3.05-4.74-3.93-4.35-4.05-8.08.13-12.31.71-.68-.26-3-.47-4.58Z" transform="translate(0 0)"/><ellipse cx="78.94" cy="18.35" rx="18.22" ry="0.6"/><ellipse cx="79.02" cy="8.55" rx="18.27" ry="0.48"/><path d="M66.06,13H91.93v.86H66.11Z" transform="translate(0 0)"/><path d="M66.15,22.85h12v.88H66.08Z" transform="translate(0 0)"/><path class="f508609a-d3f9-477d-b2cc-ab2f652e840a" d="M27,35.5c-.15-7,3.49-10.86,10.51-11.1C44.28,24.16,48.78,28,49,34.06c.32,10.72-3.78,17-11,17C31,51.07,27.2,45.68,27,35.5Z" transform="translate(0 0)"/><path class="f508609a-d3f9-477d-b2cc-ab2f652e840a" d="M20.29,25.86c.21,1.57,1.18,3.9.5,4.58-4.18,4.23-4.06,8-.13,12.31,1.75,1.94,1.65,4.38-3.05,4.74V26.22Z" transform="translate(0 0)"/></g></svg>