<svg id="a55e337c-905a-4893-8f1a-caca8a54eca7" data-name="Слой 1" xmlns="http://www.w3.org/2000/svg" viewBox="0 0 48.82 28.16"><defs><style>.f4dd7f2d-169e-4882-bda2-386915626b18{fill:none;stroke:#000;stroke-miterlimit:22.93;stroke-width:0.85px;}</style></defs><title>problem3</title><g id="adfb65ac-91c5-47bb-a5f1-64825e2dd880" data-name="Layer 1"><path class="f4dd7f2d-169e-4882-bda2-386915626b18" d="M35.26,17.18l3.87-4.6h8.73a.53.53,0,0,0,.53-.53V1c0-.4-.32-.53-.67-.53H33.29c-.36,0-.67.13-.67.53V12.05a.53.53,0,0,0,.53.53h3.69m-.67,15.59c-.31-3.47-1.2-7.29-2.31-8.73C32,17,16.81,17,14.93,19.44c-1.1,1.44-2,5.26-2.3,8.73m6.57-21c.24-2.62,2.59-3.93,5.2-3.93s5,1.31,5.2,3.93A14.12,14.12,0,0,1,28.74,13a5.6,5.6,0,0,1-3.51,2.45,4.27,4.27,0,0,1-1.67,0A5.6,5.6,0,0,1,20.05,13a14.31,14.31,0,0,1-.85-5.8Zm-1.58,10a1.75,1.75,0,0,0-1-1.27l-4-1.52L10.35,18.7h0l-.17-3.84H8.8L8.63,18.7h0L6.34,14.43,2.33,16a1.75,1.75,0,0,0-1,1.27L.42,23.53M5.08,6.41c.41-4.31,8.11-4.31,8.52,0a11.57,11.57,0,0,1-.71,4.77,4.58,4.58,0,0,1-2.87,2,3.88,3.88,0,0,1-1.36,0,4.6,4.6,0,0,1-2.88-2A11.76,11.76,0,0,1,5.08,6.41ZM37,6.22h1.27m1.62,0h1.27m1.62,0H44" transform="translate(0 -0.05)"/></g></svg>