<svg id="service5" data-name="Слой 1" xmlns="http://www.w3.org/2000/svg" viewBox="0 0 612 612"><defs><style>.f7898696-5f86-4953-b05e-fe88e53261ed{fill-rule:evenodd;}</style></defs><title>service5</title><g id="b08ac7d8-09db-491e-a9c1-2e217ab022db" data-name="Слой 1-2"><path id="b133de3f-815f-4320-ab17-2802f749b5aa" data-name="Forma 1" class="f7898696-5f86-4953-b05e-fe88e53261ed" d="M516.44,264a63.84,63.84,0,1,0-63.86-63.84A63.84,63.84,0,0,0,516.44,264Zm0-101.06c18.33,0,37.23,18.9,37.23,37.22s-18.9,37.22-37.23,37.22-37.23-18.9-37.23-37.22a36.28,36.28,0,0,1,.2-3.76c1.85-17.09,20-33.49,37-33.49ZM95.56,264A63.84,63.84,0,1,0,31.7,200.13,63.84,63.84,0,0,0,95.56,264Zm0-101.06c18.32,0,37.23,18.9,37.23,37.22s-18.91,36.22-37.23,36.22-37.23-17.9-37.23-36.22,18.91-37.25,37.23-37.25Zm58.32,337.24a15.32,15.32,0,0,1-15.32,15.31H90.26V585.4h19.07c8.46,0,15.32,2.85,15.32,11.31A15.32,15.32,0,0,1,109.33,612H44.55a15.3,15.3,0,0,1-15.31-15.29v0h0c0-8.46,6.85-11.31,15.31-11.31H63.63V515.46H15.68a15.54,15.54,0,0,1-8.5-2.33,15.29,15.29,0,0,1-7.18-13V354.52a15.3,15.3,0,0,1,15.29-15.31h0c8.46,0,12.32,6.85,12.32,15.31V488.84H138.56c8.44,0,15.32,2.86,15.32,11.31Zm386.56-41-103.09.32-39.14,141a14.11,14.11,0,0,1-.85,2.44,15.35,15.35,0,0,1-14,9.06H343.1a15.32,15.32,0,0,1-15.32-15.31h0c0-8.45,6.86-7.31,15.32-7.31h32.64l38.19-145.25a15.34,15.34,0,0,1,14.71-11.22l101.48-.32-1-123.94h-11l-53.15,74h15.74c8.46,0,20.32,6.85,20.32,15.31s-6.86,12.31-15.32,12.31h-103a15.32,15.32,0,0,1-14.43-10.17l-34.11-95.4a15.31,15.31,0,0,1,9.27-19.56h0c8-2.83,12.72,1.31,15.57,9.27l31.53,88.28h42l65.24-92.19a15.3,15.3,0,0,1,12.5-6.47h30.2a15.3,15.3,0,0,1,15.31,15.31h0V443.85a15.27,15.27,0,0,1-4.18,10.51h-.08a15.31,15.31,0,0,1-5.82,3.78h-.06a15.28,15.28,0,0,1-5.14.9Zm71.56,41a15.3,15.3,0,0,1-15.31,15.31H548.38v68.9h19.07c8.46,0,15.32,3.86,15.32,12.31A15.32,15.32,0,0,1,567.45,612H502.67a15.3,15.3,0,0,1-15.31-15.31h0c0-8.45,6.85-12.31,15.31-12.31h19.08V515.46H473.44a15.3,15.3,0,0,1-15.32-15.3h0c0-8.45,6.86-11.31,15.32-11.31H586.36V354.52c0-8.46,1.86-15.31,10.32-15.31A15.3,15.3,0,0,1,612,354.49v0h0V500.18ZM284.22,596.69A15.32,15.32,0,0,1,268.9,612H228.62a15.34,15.34,0,0,1-14-9.08,14.67,14.67,0,0,1-.85-2.41l-39.14-141-103.09-.33a15.45,15.45,0,0,1-5.13-.88h-.07a15.17,15.17,0,0,1-5.82-3.77h-.1A15.27,15.27,0,0,1,56.24,444V299.35h0A15.3,15.3,0,0,1,71.49,284h30.28a15.33,15.33,0,0,1,12.5,6.46l65.23,92.19h42L253,294.42c2.84-8,7.61-12.12,15.57-9.27a15.3,15.3,0,0,1,9.28,19.55h0l-31.17,93.44a15.32,15.32,0,0,1-14.42,10.16h-106C117.8,408.3,111,403.44,111,395s6.85-12.31,15.31-12.31H142l-48.14-68h-7V428.59l99.48.32a15.34,15.34,0,0,1,14.71,11.22l39.2,145.25H268.9c8.46,0,15.32,2.84,15.32,11.3ZM396.08,136.77a15.31,15.31,0,0,0,26.63-10.31V33.52A33.56,33.56,0,0,0,389.18,0H307.75a33.56,33.56,0,0,0-33.53,33.52V77.27a33.56,33.56,0,0,0,33.53,33.52h64.63Zm-96.23-54.5V28.52a2.94,2.94,0,0,1,2.9-2.9h91.42a3,3,0,0,1,2.9,2.9V92l-1.62-1.78a15.29,15.29,0,0,0-11.32-5H302.75a2.94,2.94,0,0,1-2.9-2.9Zm5,61.68a15.34,15.34,0,0,1-15.32,15.31H232.6l-20.5,11.48a15.31,15.31,0,0,1-22.8-13.35V82a33.57,33.57,0,0,1,33.54-33.52h18a15.3,15.3,0,0,1,15.31,15.29h0c0,8.45-10.86,11.3-19.31,11.3h-18A3,3,0,0,0,215.92,78v57.27l1.19-.67a15.48,15.48,0,0,1,7.49-2h64.93c8.46,0,15.32,2.86,15.32,11.31Z" transform="translate(0)"/></g></svg>