<svg id="service9" data-name="Слой 1" xmlns="http://www.w3.org/2000/svg" viewBox="0 0 611.88 611.69"><defs><style>.fa9bbfb6-4a25-42fd-802c-8b33b105e303{fill-rule:evenodd;}</style></defs><title>service9</title><g id="a76b4465-7bfd-494c-a2bd-3635f7d3215b" data-name="Слой 1-2"><path id="bb004d6c-e51b-435c-b49b-57d508132f68" data-name="Forma 1" class="fa9bbfb6-4a25-42fd-802c-8b33b105e303" d="M612,359.17v-1.48a1.27,1.27,0,0,0-.08-.52,2.3,2.3,0,0,1-.1-.51c0-.17-.07-.27-.1-.4a5.76,5.76,0,0,0-.18-.59l0-.15L520.23,102.23a41.7,41.7,0,0,0,28.32-39.44,9.92,9.92,0,1,0-19.82-.8c0,.2,0,.4,0,.6v.2A21.84,21.84,0,0,1,506.91,84.6c-32.42,0-55.08-9.35-79.08-19.25-25.73-10.61-52.3-21.56-92.36-22.91a31.22,31.22,0,0,0-19.56-19.66V9.91a9.92,9.92,0,0,0-19.83,0V22.78a31.22,31.22,0,0,0-19.56,19.66c-40,1.34-66.62,12.3-92.36,22.91-24,9.9-46.66,19.25-79.08,19.25A21.84,21.84,0,0,1,83.27,62.79a9.92,9.92,0,0,0-19.83,0,41.71,41.71,0,0,0,28.33,39.44L.58,355.51v.16c-.06.19-.12.39-.17.59a2.6,2.6,0,0,0-.1.4,3.06,3.06,0,0,1-.1.51c0,.17-.06.34-.08.51a2.8,2.8,0,0,0,0,.41v1.42C.26,379.63,11.69,398.25,32.29,412c19.58,13.06,45.44,20.25,72.79,20.25S158.29,425,177.88,412c20.6-13.73,32-32.35,32.27-52.47V357.7a3.55,3.55,0,0,0-.08-.51c0-.17-.06-.34-.1-.51s-.06-.27-.1-.4a5.76,5.76,0,0,0-.18-.59v-.16L119,103.88c29.2-2.26,51.29-11.35,72.73-20.2,23.93-9.87,48.63-20.05,84.9-21.4a31.21,31.21,0,0,0,19.46,19.36v290.1a31,31,0,0,0-12.81,50.58,31,31,0,0,0-8.34,21.15v106.4H232a31.1,31.1,0,0,0-31.06,31.06v21.15a9.91,9.91,0,0,0,9.9,9.92H401.17a9.91,9.91,0,0,0,9.91-9.91h0V580.94A31.1,31.1,0,0,0,380,549.88H337V443.47a31,31,0,0,0-8.34-21.15,31,31,0,0,0-12.81-50.58V81.64a31.17,31.17,0,0,0,19.46-19.36c36.27,1.36,61,11.53,84.9,21.4,21.45,8.85,43.54,17.94,72.73,20.2L402.41,355.51l-.05.16c-.06.19-.12.39-.17.59a2.6,2.6,0,0,0-.1.4,3.06,3.06,0,0,1-.1.51c0,.17-.06.34-.08.51a2.8,2.8,0,0,0,0,.41v1.42c.24,20.12,11.67,38.74,32.27,52.47,19.59,13.06,45.44,20.25,72.8,20.25S560.13,425,579.72,412c20.6-13.73,32-32.35,32.27-52.47A2.17,2.17,0,0,1,612,359.17ZM105.1,123.77,186.15,349H24Zm0,288.63c-40.84,0-76.08-19.14-83.73-43.62H188.8c-7.64,24.48-42.88,43.63-83.72,43.63ZM391.25,580.94v11.23H220.74V580.94A11.25,11.25,0,0,1,232,569.7H380a11.24,11.24,0,0,1,11.25,11.23Zm-96.49-31.06V443.47a11.24,11.24,0,1,1,22.47-.67c0,.22,0,.45,0,.67h0V549.88ZM306,412.41a11.24,11.24,0,1,1,11.23-11.25h0A11.25,11.25,0,0,1,306,412.41Zm0-349h0A11.24,11.24,0,0,1,306,41h0a11.24,11.24,0,0,1,0,22.47ZM588,349H425.85l81.06-225.18Zm-81.07,63.45c-40.84,0-76.07-19.15-83.72-43.62H590.63c-7.64,24.47-42.88,43.62-83.72,43.62Z" transform="translate(-0.12 -0.31)"/></g></svg>