<svg id="service4" data-name="Слой 1" xmlns="http://www.w3.org/2000/svg" viewBox="0 0 55.54 53.59"><defs><style>.a88a1c93-4fa0-49a9-97c4-9cc4ae29eeab{fill-rule:evenodd;}</style></defs><title>service4</title><g id="a748bfa6-96fa-48e6-9d63-9a8a8050ac70" data-name="Слой 1-2"><path id="f79ce0cc-8d25-4e1c-9bae-aee9d3d38243" data-name="Forma 1" class="a88a1c93-4fa0-49a9-97c4-9cc4ae29eeab" d="M11.9,29.77A11.91,11.91,0,1,0,23.81,41.68h0a11.9,11.9,0,0,0-11.9-11.9Zm0,21.83a9.93,9.93,0,1,1,9.93-9.93A9.94,9.94,0,0,1,11.9,51.6Zm6-10.92h-5v-5a1,1,0,0,0-2,0v6a1,1,0,0,0,1,1h6a1,1,0,0,0,0-2ZM55,40.59c-2-3.77-8.91-7.85-9.22-8A4.93,4.93,0,0,0,42.09,32a3.27,3.27,0,0,0-2,1.53,33.05,33.05,0,0,1-2.57,2.85c-2.35,1.59-4.22,1.4-6.25-.63L19.87,24.3c-2-2-2.21-3.9-.62-6.24a33,33,0,0,1,2.84-2.58,3.32,3.32,0,0,0,1.54-2A4.93,4.93,0,0,0,23,9.77c-.17-.29-4.26-7.2-8-9.2a4.87,4.87,0,0,0-5.75.87L6.7,4c-6,6-6.18,13.3-.57,21.14a1,1,0,0,0,1.39.23A1,1,0,0,0,7.75,24h0c-5.12-7.16-5-13.24.36-18.59l2.51-2.52a2.91,2.91,0,0,1,3.43-.51c3.26,1.73,7.19,8.38,7.23,8.44A3,3,0,0,1,21.73,13a1.34,1.34,0,0,1-.68.83l-.15.1a30.07,30.07,0,0,0-3.28,3,8.35,8.35,0,0,0-1.22,2.64,13.93,13.93,0,0,1-1.46-4.84,1,1,0,1,0-1.94.2c.72,6.9,6.08,11.38,6.31,11.57l.08.05L29.88,37.07l.14.13a.86.86,0,0,0,.1.16A20.79,20.79,0,0,0,41.63,42.6h.1a1,1,0,0,0,.1-2,17.23,17.23,0,0,1-5.5-1.55,8.69,8.69,0,0,0,2.31-1.13,28.26,28.26,0,0,0,3-3.28l.1-.15a1.34,1.34,0,0,1,.83-.68,3.07,3.07,0,0,1,2.17.44c1.87,1.1,7,4.53,8.46,7.24a2.91,2.91,0,0,1-.51,3.42l-2.52,2.52c-5.35,5.35-11.7,5.4-18.87.16a1,1,0,0,0-1.22,1.57h0C34,52,37.76,53.44,41.3,53.44A14.26,14.26,0,0,0,51.53,48.8l2.52-2.52A4.85,4.85,0,0,0,55,40.59Z" transform="translate(0.01 0)"/></g></svg>