<svg id="service2" data-name="Слой 1" xmlns="http://www.w3.org/2000/svg" viewBox="0 0 537 612"><defs><style>.a9d19bcb-5e6b-4a92-8fb1-0c15b3acccce{fill-rule:evenodd;}</style></defs><title>service2</title><g id="edfcdbf4-94e8-4348-bc94-c403364be68c" data-name="Слой 1-2"><path id="a9aaf19b-cd8c-4b67-86be-81e8f567eb8c" data-name="Forma 1" class="a9d19bcb-5e6b-4a92-8fb1-0c15b3acccce" d="M505.37,0H268.5a31.67,31.67,0,0,0-31.63,31.61V139.89H176.46A85.43,85.43,0,0,0,91,225.29h0c0,1.78,0,3.56.16,5.33l5.75,91.9c.11,39.77,16.87,75.35,43.06,98.85v16.08l-17.74,26.6-83,22.63A53.28,53.28,0,0,0,0,537.94v42.45A31.64,31.64,0,0,0,31.63,612H397.7a31.67,31.67,0,0,0,31.63-31.61V537.94a53.26,53.26,0,0,0-39.17-51.25L307.1,464.05l-17.74-26.6V421.37c26.19-23.5,42.95-59.07,43.06-98.84L333.83,300H505.37A31.67,31.67,0,0,0,537,268.34V31.61A31.64,31.64,0,0,0,505.37,0ZM128.88,180.63a64.68,64.68,0,0,1,47.58-20.57h76.41a65.25,65.25,0,0,1,65.28,65.22h0c0,1.36,0,2.72-.13,4.07l-1.9,30.36A188.26,188.26,0,0,0,298,229.88a10.08,10.08,0,0,0-11.77-3.17c-50.7,20.52-146,20.78-147,20.78a10.12,10.12,0,0,0-6.23,2.15c-.7.56-10,8-19.1,22.17l-2.66-42.45A64.61,64.61,0,0,1,128.88,180.63ZM243.34,508.7h0L229.62,495l47.48-39.55,11.57,17.35-32.05,48.05a.66.66,0,0,1-.93.18.28.28,0,0,1-.1-.09Zm-57.35,0-12.24,12.24a.69.69,0,0,1-1,0l0,0-.08-.1-32-48.05,11.57-17.35L199.71,495,186,508.69Zm28.67,49.5a19.17,19.17,0,0,0,2.52-.11l6.92,33.74H205.23l6.92-33.74c.85.07,1.67.11,2.51.11Zm11.44-31.61a11.44,11.44,0,0,1-22.87,0V520l11.43-11.43L226.1,520Zm-11.44-45.41-53.74-44.76a109,109,0,0,0,107.49,0ZM20.19,580.39V537.94a33,33,0,0,1,24.3-31.79l79.68-21.72L155.92,532a20.8,20.8,0,0,0,15.3,9.19c.69.06,1.38.1,2.07.1A20.74,20.74,0,0,0,185,537.66a31.88,31.88,0,0,0,8.2,12.15l-8.62,42h-89v-33a10.1,10.1,0,0,0-20.19,0v33H31.63A11.45,11.45,0,0,1,20.19,580.39Zm389-42.45v42.45a11.45,11.45,0,0,1-11.44,11.43H354v-33a10.1,10.1,0,0,0-20.19,0v33h-89.1l-8.62-42a31.84,31.84,0,0,0,8.2-12.16,20.84,20.84,0,0,0,29-5.43l.15-.23,31.75-47.59,79.68,21.72a33,33,0,0,1,24.3,31.78ZM214.66,430.42c-53.66,0-97.34-48.33-97.56-107.83a90.37,90.37,0,0,1,26.09-54.95c18.16-.24,93.67-2.23,143.08-19.4,8.3,12.51,26,42.78,26,73.9C312.24,381.85,268.47,430.42,214.66,430.42ZM516.81,268.34a11.45,11.45,0,0,1-11.44,11.43H335.1l3.07-49.15a85.52,85.52,0,0,0-.61-17L463,88.25v29.44a10.09,10.09,0,1,0,20.18,0V63.89A10.09,10.09,0,0,0,473.09,53.8H419.24a10.09,10.09,0,1,0,0,20.18H448.7L331.32,191.29A85.7,85.7,0,0,0,257.06,140V31.61A11.45,11.45,0,0,1,268.5,20.18H505.37a11.45,11.45,0,0,1,11.44,11.43Zm-155-211.58a10.09,10.09,0,0,0-14.27,0h0L327.72,76.52,307.94,56.76a10.09,10.09,0,1,0-14.8,13.72l.52.52h0l19.78,19.77-19.78,19.77a10.09,10.09,0,1,0,14.28,14.27h0L327.72,105l19.78,19.77a10.09,10.09,0,1,0,14.27-14.27L342,90.79,361.77,71a10.1,10.1,0,0,0,0-14.26Zm118.4,118.36a10.1,10.1,0,0,0-14.28,0l-19.78,19.77-19.78-19.77A10.09,10.09,0,0,0,412,189.29a.47.47,0,0,1,.1.1l19.78,19.76L412.1,228.92a10.09,10.09,0,1,0,14.28,14.27h0l19.77-19.77,19.78,19.77a10.09,10.09,0,1,0,14.28-14.27l-19.78-19.76,19.78-19.77a10.08,10.08,0,0,0,0-14.26h0Z"/></g></svg>