<svg id="service3" data-name="Слой 1" xmlns="http://www.w3.org/2000/svg" viewBox="0 0 477.61 512"><defs><style>.f96af55c-fa78-4af8-8f2c-89fe6c05cb4f{fill-rule:evenodd;}</style></defs><title>service3</title><g id="aeb5d321-bb7e-4063-a063-682f465c203d" data-name="Слой 1-2"><path class="f96af55c-fa78-4af8-8f2c-89fe6c05cb4f" d="M358.18,315.73a8.53,8.53,0,0,0-8.53-8.53H298.48a8.54,8.54,0,0,0,0,17.07h51.17A8.55,8.55,0,0,0,358.18,315.73ZM324.07,93.87V51.2A8.54,8.54,0,1,0,307,51h0V93.87a42.69,42.69,0,0,0,42.64,42.66H426.4V298.67a8.53,8.53,0,0,0,17.06,0h0V128a8.53,8.53,0,0,0-8.53-8.53H349.65A25.61,25.61,0,0,1,324.07,93.87ZM349.65,204.8H281.42a8.54,8.54,0,0,0,0,17.07h68.23a8.54,8.54,0,0,0,0-17.07Zm-93.81,8.53a8.53,8.53,0,0,0-8.53-8.53H196.15a8.54,8.54,0,0,0,0,17.07h51.16A8.55,8.55,0,0,0,255.84,213.33ZM196.15,256a8.54,8.54,0,1,0-.58,17.07h17.58a8.54,8.54,0,0,0,0-17.07Zm0-85.33h85.27a8.54,8.54,0,0,0,0-17.07H196.14a8.6,8.6,0,0,0-8.92,8.26,2.44,2.44,0,0,0,0,.27,8.38,8.38,0,0,0,8.18,8.56C195.64,170.69,195.9,170.69,196.15,170.67Zm51.16,102.4h85.28a8.54,8.54,0,1,0,.58-17.07H247.31a8.54,8.54,0,0,0,0,17.07Zm51.17,85.33a8.54,8.54,0,0,0,0,17.07h17.06a8.54,8.54,0,0,0,0-17.07Zm-34.11-51.2H196.15a8.54,8.54,0,1,0-.58,17.07h68.8a8.54,8.54,0,0,0,0-17.07Zm0,51.2H196.15a8.54,8.54,0,1,0-.58,17.07h68.8a8.54,8.54,0,0,0,0-17.07Zm203-6.9-17.05-17.07c-13.11-13.11-33.08-13.09-46.17,0l-111.7,111.8a8.55,8.55,0,0,0-2.5,6v51.2a8.53,8.53,0,0,0,8.53,8.53h51.17a8.55,8.55,0,0,0,6-2.5L467.42,397.7c13.58-13.6,13.58-32.6,0-46.2Zm-74.25,18.1,13.53,13.53-74.1,74.14L319,443.74ZM307,494.94V455.8l39.11,39.13H307Zm51.17-12.07-13.53-13.53,74.1-74.14,13.52,13.53Zm97.18-97.24-11,11-39.11-39.14,11-11c6.73-6.73,15.28-6.77,22.05,0l17.06,17.07c6.9,6.9,6.9,15.16,0,22.06Zm-191,109.3H42.64a25.61,25.61,0,0,1-25.58-25.6V42.67a25.61,25.61,0,0,1,25.58-25.6H312L394.79,99.9a8.53,8.53,0,1,0,12.06-12.07h0L321.57,2.5a8.55,8.55,0,0,0-6-2.5H42.64A42.7,42.7,0,0,0,0,42.67V469.33A42.7,42.7,0,0,0,42.64,512H264.37a8.54,8.54,0,0,0,0-17.07Zm0-85.33h-68.2a8.54,8.54,0,1,0-.58,17.07h68.8a8.54,8.54,0,0,0,0-17.07ZM153.51,162.13A8.55,8.55,0,0,0,145,153.6H93.81a8.53,8.53,0,0,0-8.53,8.53v51.2a8.55,8.55,0,0,0,8.53,8.54H145a8.54,8.54,0,0,0,8.52-8.54v-51.2ZM136.45,204.8H102.34V170.67h34.11ZM93.81,426.67H145a8.54,8.54,0,0,0,8.52-8.54v-51.2A8.51,8.51,0,0,0,145,358.4H93.81a8.53,8.53,0,0,0-8.53,8.53v51.2A8.55,8.55,0,0,0,93.81,426.67Zm8.53-51.2h34.11V409.6H102.34Zm2.5-53.7a8.55,8.55,0,0,0,6,2.5,6,6,0,0,0,.85,0,8.53,8.53,0,0,0,6.25-3.75l34.11-51.2a8.53,8.53,0,1,0-14.1-9.61l-.09.14-28.34,42.53-9.7-9.7A8.53,8.53,0,0,0,86.89,303.8a8.4,8.4,0,0,0,.89.9Z"/></g></svg>