<svg id="service8" data-name="Слой 1" xmlns="http://www.w3.org/2000/svg" viewBox="0 0 606 800"><defs><style>.e6ae8a1f-712a-432f-84cf-b3c4f277ee25{fill-rule:evenodd;}</style></defs><title>service8</title><g id="a3e90de0-cd20-455e-bb3a-0a26944d42e7" data-name="Слой 1-2"><path class="e6ae8a1f-712a-432f-84cf-b3c4f277ee25" d="M565.43,27.65H219.26v-.87A26.8,26.8,0,0,0,192.5,0H109.63A26.8,26.8,0,0,0,82.87,26.78v.87H40.57A40.64,40.64,0,0,0,0,68.25V759.4A40.64,40.64,0,0,0,40.57,800H565.43A40.64,40.64,0,0,0,606,759.4V68.25A40.64,40.64,0,0,0,565.43,27.65Zm-456.66-.87a.88.88,0,0,1,.86-.86H192.5a.87.87,0,0,1,.86.86h0V185.51l-36.51-18.27a13,13,0,0,0-11.58,0l-36.5,18.27V26.78ZM580.1,759.4a14.72,14.72,0,0,1-14.68,14.69H40.57A14.71,14.71,0,0,1,25.9,759.4V68.25A14.71,14.71,0,0,1,40.57,53.56h42.3V206.48a12.94,12.94,0,0,0,12.92,13,12.81,12.81,0,0,0,5.82-1.37l49.46-24.75,49.46,24.75a13,13,0,0,0,18.74-11.59V53.56H565.43A14.71,14.71,0,0,1,580.1,68.25ZM495.45,495.74v-.37c0-.12-.08-.51-.12-.77s-.05-.36-.09-.53-.09-.34-.13-.51-.13-.52-.21-.77-.08-.22-.12-.33c-.11-.3-.22-.6-.35-.9v-.07L440.26,369.61V357.67h14.67a13,13,0,0,0,0-25.92H316V314.07a40.57,40.57,0,1,0-25.9,0v17.68h-139a13,13,0,0,0-2,25.92,13.89,13.89,0,0,0,2,0h14.67v11.94L111.61,491.5v.07c-.12.29-.23.59-.34.89a2,2,0,0,0-.12.34c-.08.25-.15.5-.21.76a4.77,4.77,0,0,0-.13.51,3.09,3.09,0,0,1-.09.53c0,.17-.09.52-.12.78a1.32,1.32,0,0,0,0,.36v1c0,30,30.59,54.43,68.2,54.43S247,526.77,247,496.76v-.07a6.05,6.05,0,0,0-.05-.95v-.36c0-.12-.08-.52-.12-.78s-.05-.35-.09-.53-.09-.34-.13-.51-.13-.51-.21-.76l-.12-.34c-.11-.3-.22-.6-.35-.9v-.06L191.64,369.61V357.67h98.41V472.11a40.68,40.68,0,0,0-27.62,38.47v97.63H233.94a13,13,0,0,0,0,25.92H372.06a13,13,0,0,0,0-25.92H343.57V510.58A40.67,40.67,0,0,0,316,472.11V357.67h98.41V369.6L360.23,491.5v.07c-.13.29-.24.59-.34.89,0,.11-.09.22-.13.34s-.14.5-.2.76-.1.34-.14.51-.05.36-.09.53a6.35,6.35,0,0,0-.11.78v1.38c0,30,30.59,54.43,68.2,54.43s68.2-24.42,68.2-54.43v-.07A3.59,3.59,0,0,1,495.45,495.74ZM303,260.91a14.69,14.69,0,1,1-14.67,14.71h0A14.69,14.69,0,0,1,303,260.91ZM178.69,404.26,214,483.8H143.37Zm0,121c-16.06,0-30.37-6.4-37.51-15.55h75c-7.12,9.16-21.43,15.56-37.49,15.56Zm139,82.94H288.32V510.58a14.68,14.68,0,0,1,29.35,0h0v97.63Zm109.64-204,35.32,79.54H392Zm0,121c-16.06,0-30.37-6.4-37.51-15.55h75c-7.14,9.22-21.45,15.62-37.51,15.62Z"/></g></svg>