<svg id="service7" data-name="Слой 1" xmlns="http://www.w3.org/2000/svg" viewBox="0 0 48 60"><defs><style>.e69ec7d3-c7d2-4390-b0f9-cdf20db800db{fill-rule:evenodd;}</style></defs><title>service7</title><g id="a26fe9df-2f9d-405e-bd4b-a4b0c6f03c3a" data-name="Слой 1-2"><path id="ec831e7b-d168-44cc-a9be-1e42911fd8c1" data-name="Forma 1" class="e69ec7d3-c7d2-4390-b0f9-cdf20db800db" d="M39,25H14a1,1,0,0,0,0,2H39a1,1,0,0,0,0-2ZM14,19H24a1,1,0,0,0,0-2H14a1,1,0,0,0,0,2ZM39,33H14a1,1,0,0,0,0,2H39a1,1,0,0,0,0-2Zm0,8H14a1,1,0,0,0,0,2H39a1,1,0,0,0,0-2Zm0,8H14a1,1,0,0,0,0,2H39a1,1,0,0,0,0-2Zm4-34.41V0H0V55H5v5H48V19.59ZM34,8.41l9,9L44.59,19H34ZM2,53V2H41V12.59L33.41,5H5V53Zm5,5V7H32V21H46V58Z"/></g></svg>