<svg id="service6" data-name="Слой 1" xmlns="http://www.w3.org/2000/svg" viewBox="0 0 745 800"><defs><style>.f5b8aec1-1fa0-4d70-905d-1542bcc7e8aa{fill-rule:evenodd;}</style></defs><title>service6</title><g id="e5c75b90-1cac-4ff0-82cb-aaea9ab0c34d" data-name="Слой 1-2"><path class="f5b8aec1-1fa0-4d70-905d-1542bcc7e8aa" d="M661.86,576.45l-50.57-12.64a13,13,0,0,0-8.83-11.38L523.26,526a40.4,40.4,0,0,0-11.77-12.13L491.82,500.8c44.68-42.92,73.41-109.33,73.41-183.74a192.67,192.67,0,0,0-3.32-33.72,13.67,13.67,0,0,0,.62-2.6c.08-.65,8.59-65.56,13.33-143.55a124,124,0,0,0-27.55-86A122.74,122.74,0,0,0,469.7,6.9,708.69,708.69,0,0,0,372.5,0C347.4,0,285.68,4.13,243,41.47h-4.83a82,82,0,0,0-82.11,81.89v0c0,1.95.06,3.91.2,5.85,3.61,50.41,10.37,122,22,176.69a13.32,13.32,0,0,0,1.57,3.94c-.06,2.39-.12,4.78-.12,7.18,0,74.41,28.73,140.82,73.41,183.74l-19.67,13.11A40.46,40.46,0,0,0,221.73,526l-79.2,26.39a13,13,0,0,0-8.83,11.38L83.14,576.45A109.57,109.57,0,0,0,0,682.89v76.5A40.66,40.66,0,0,0,40.62,800H704.38A40.65,40.65,0,0,0,745,759.4V682.9A109.57,109.57,0,0,0,661.86,576.45Zm-148,65.73,23.46,35.16-49.16,96.74H454.64c-.24-18.82.9-59.72,13.37-93.09.17-.49.32-1,.44-1.49l.33-.64,20.12-40.21c12.12-24.24,26.67-53.34,36.4-72.82a40.54,40.54,0,0,0,3.58-10.6L582,572.94l-12.21,37.39-48.36,12.08A13,13,0,0,0,512,638.13a13.2,13.2,0,0,0,1.82,4Zm-102,131.9-11.28-88.77a26.75,26.75,0,0,0,12.6-22.67v-4.9a264.53,264.53,0,0,1,27.69,22.63c-11.21,35.29-12.37,74.39-12.12,93.71Zm-95.1,0c.25-19.37-.92-58.63-12.22-94a265.55,265.55,0,0,1,27.4-22.35v4.9a26.75,26.75,0,0,0,12.6,22.67L333.2,774.08ZM372.5,635a159,159,0,0,1,14.69,6.82v20.85a.87.87,0,0,1-.86.86H358.67a.87.87,0,0,1-.86-.86h0V641.79A158.73,158.73,0,0,1,372.5,635Zm-2.4,54.45h4.81l10.76,84.66H359.34Zm132-135.17c-24.1,48.23-41.29,82.6-50.47,100.93-22.24-19.54-42.5-31.53-56.4-38.42l89.54-89.5,12.33,8.22a14.7,14.7,0,0,1,5,18.74ZM538.43,318H496.09V303.24a13,13,0,0,0-13-13h-83a13,13,0,0,0-13,13h0v3.62a40.47,40.47,0,0,0-29.38,0v-3.62a13,13,0,0,0-13-13h-83a13,13,0,0,0-13,13h0v14.69h-43V317c0-44.72,11.13-87,32.29-122.83,81.6,25.38,173.14,25.31,269.87,25.22h8c10,25.17,23.42,65.2,23.42,97.62v.9h-.86ZM182.14,127.4a56.11,56.11,0,0,1,52.05-59.88c1.33-.09,2.67-.13,4-.13h9.86A13,13,0,0,0,257,63.81c35.92-34.2,92.75-37.89,115.51-37.89a683.63,683.63,0,0,1,93.63,6.65,96.86,96.86,0,0,1,62,35A98.21,98.21,0,0,1,550,135.63c-1.87,30.81-4.34,59.54-6.63,83-2.27-6-4.56-11.78-6.77-17.1a13,13,0,0,0-12-8H507.83c-98.39.09-191.34.16-271.32-27a13,13,0,0,0-15,5.19,251.08,251.08,0,0,0-29,61.46C187.65,195.91,184.32,157.77,182.14,127.4Zm24.93,216.45h41.84v.86a13,13,0,0,0,25.93,0V316.2h15.55v14.69a13,13,0,0,0,25.93,0V316.2h15.56v28.51a13,13,0,0,0,25.93,0,14.69,14.69,0,0,1,29.38,0,13,13,0,0,0,25.93,0V316.2h15.56v14.69a13,13,0,0,0,25.93,0V316.2h15.55v28.51a13,13,0,0,0,25.93,0v-.86h41.84c-10.56,102.2-80.72,181.42-165.43,181.42S217.63,446.05,207.07,343.85ZM372.5,551.19a162.15,162.15,0,0,0,65.69-14L372.5,602.84l-65.69-65.66A162,162,0,0,0,372.5,551.19ZM247.89,535.48l12.33-8.22,89.54,89.5c-13.9,6.88-34.16,18.88-56.4,38.42-9.36-18.69-26.87-53.72-50.47-100.93A14.71,14.71,0,0,1,247.89,535.48Zm-31.77,19.75a40.13,40.13,0,0,0,3.58,10.61l36.4,72.81,20.12,40.21c.44.87.87,1.72,1.3,2.53,12.3,33.2,13.45,73.92,13.22,92.69H256.88l-49.15-96.74,23.45-35.16a13,13,0,0,0-7.65-19.76l-48.35-12.09L163,572.94ZM25.93,759.4V682.9a83.68,83.68,0,0,1,63.5-81.3l51.42-12.85,11.9,36.44a13,13,0,0,0,9.18,8.55l37.47,9.36L182,669.27a13,13,0,0,0-.78,13.06l46.63,91.75H150.38V731.75a13,13,0,0,0-25.92,0v42.33H40.62A14.7,14.7,0,0,1,25.93,759.4Zm693.14,0a14.71,14.71,0,0,1-14.69,14.69H620.55V731.75a13,13,0,0,0-25.93,0v42.33H517.21l46.62-91.75a13,13,0,0,0-.78-13.06L545.6,643.1l37.47-9.36a13,13,0,0,0,9.18-8.55l11.9-36.45,51.42,12.85a83.68,83.68,0,0,1,63.5,81.3V759.4ZM309.89,451.8c15.37,10.45,38.19,16.45,62.61,16.45s47.24-6,62.61-16.45a13,13,0,1,0-14.59-21.43c-11,7.49-29,12-48,12s-37-4.47-48-12a13,13,0,0,0-14.59,21.43Z" transform="translate(0)"/></g></svg>