<svg id="service1" data-name="Слой 1" xmlns="http://www.w3.org/2000/svg" viewBox="0 0 607.24 612.11"><defs><style>.bbf573d9-7573-4fa4-91c6-7279543e8298{fill-rule:evenodd;}</style></defs><title>service1</title><g id="b624ddf4-d7c4-4a62-941f-a281db8d0a4e" data-name="Слой 1-2"><path id="a215716a-1de5-448c-a3e4-d21e476c8381" data-name="Forma 1" class="bbf573d9-7573-4fa4-91c6-7279543e8298" d="M593.12,612.11c-5.6,0-5.9-3.35-8.1-8.87l-36.19-88C530.75,470.72,506,445.24,477,440l-15.35,38,18.17,91.47A14.07,14.07,0,0,1,474.67,582L452,600.25a14.15,14.15,0,0,1-8.84,3.11h-8.05a14.1,14.1,0,0,1-8.83-3.11L403.56,582a14.06,14.06,0,0,1-5.19-12.55L415.55,478,401.2,438.92c-28.93,5.27-54.72,31.76-72.83,76.35l-34.74,88c-2.93,7.21-7.15,10.69-14.37,7.76a14.08,14.08,0,0,1-7.76-18.35h0l35.73-88c15.5-38.17,43-88.61,103.54-91.07a12.58,12.58,0,0,1,1.62-.1h53.45a12.58,12.58,0,0,1,1.62.1c60.54,2.46,88,52.9,103.54,91.07l35.21,88.12a14.11,14.11,0,0,1-13.09,19.33ZM422.26,564.89l16.86,15.52L456,564.89l-13.17-73.48h-7.35Zm12-101.67H444l4.51-21.53H429.76ZM14.09,612.11A14.11,14.11,0,0,1,1,592.71L36.23,506C51.91,467.36,80,416,143,416h46.7c34,0,61.88,15.09,83,44.85.35.49,1.95,2.67,3.9,5.32,6.74,9.19,8.53,11.65,9.12,12.54a14.1,14.1,0,0,1-23.29,15.9l-.18-.27c-.76-1.09-5.72-7.84-8.39-11.49-2.1-2.86-3.82-5.2-4.16-5.68-9.75-13.73-20.66-23-33.35-28.1L177.75,502A14.1,14.1,0,0,1,155,502l-38.64-56.93c-22,8.92-42.93,34.45-58,71.48l-35.2,86.74C20.94,608.79,19.66,612.11,14.09,612.11Zm128.6-167.9,23.67,30.57L190,444.21ZM223.24,612.1h-150A14.11,14.11,0,0,1,59.15,598c0-7.78,6.32-11.1,14.1-11.1h150c7.79,0,14.1,3.31,14.1,11.1a14.09,14.09,0,0,1-14.08,14.1h0Zm280-102.61a14.1,14.1,0,0,1-14.1-14.1h0v-1.77a14.11,14.11,0,0,1,28.21,0v1.77a14.1,14.1,0,0,1-14.1,14.1h0ZM166.36,395.33A71.54,71.54,0,0,1,146.3,255.11l.44-.13a70.94,70.94,0,0,1,14.45-2.55h2.4c.88,0,1.75-.05,2.63-.05H167a71.54,71.54,0,0,1-.59,143ZM144,281.66c-10.89,7.88-27,27.69-27,42.13,0,23.9,25.46,49.53,49.36,50.34,29.26,1,45.32-25,50-43.78C185.77,330.53,154.43,308.87,144,281.66Zm24.15-1.18A43.14,43.14,0,0,0,206,306.12a43.46,43.46,0,0,0-37.86-25.64Zm271,111.59a72.4,72.4,0,1,1,14-143.46,3.93,3.93,0,0,1,.88.18,72.4,72.4,0,0,1-14.86,143.28ZM414.06,279.25c-11.57,8-22.17,25.33-22.17,40.41,0,1-2,2-1.88,3,1.75,23.23,25.71,44.24,49.1,44.24,24.39,0,48.22-22.83,48.22-47.21,0-18.14-15-36.76-30.65-43.57-5.91,7.62-13.31,17-21.8,21.77a14.11,14.11,0,0,1-19.2-5.39h0C414,289.56,413.55,282.31,414.06,279.25Zm-309-34.59A14.1,14.1,0,0,1,91,230.56h0v-127a44.83,44.83,0,0,1,44.8-44.78h50a14.1,14.1,0,0,1,14.1,14.1h0c0,7.79-6.31,9.1-14.1,9.1h-50c-9.15,0-20.59,12.44-20.59,21.58l1,107,22.42-11.88a14.08,14.08,0,0,1,6.89-1.8H267.84c7.79,0,14.1,5.31,14.1,13.1s-6.32,12.1-14.1,12.1H149.14l-37.2,20.84a14.05,14.05,0,0,1-6.89,1.74Zm334.14-29.2a14.09,14.09,0,0,1-10.42-4.6l-43.42-47.59h-114a44.82,44.82,0,0,1-44.79-44.78V44.78A44.83,44.83,0,0,1,271.32,0H408.49a44.83,44.83,0,0,1,44.8,44.78V201.36a14.12,14.12,0,0,1-14.1,14.1ZM271.32,23.2c-9.15,0-20.59,12.44-20.59,21.58v76.71c0,9.15,11.44,16.58,20.59,16.58H391.58a14.09,14.09,0,0,1,10.42,4.6L429.08,172l-1-127.19c0-9.14-10.44-21.58-19.59-21.58ZM183,134.24H157.36c-7.79,0-14.1-4.31-14.1-12.1s6.32-10.1,14.1-10.1H183c7.79,0,14.1,2.31,14.1,10.1S190.74,134.24,183,134.24ZM383.86,78.31H325.65c-7.79,0-14.1-4.31-14.1-12.1s6.32-12.1,14.1-12.1h58.21c7.79,0,14.1,4.32,14.1,12.1S391.65,78.31,383.86,78.31Z" transform="translate(0.03)"/></g></svg>