<svg id="woman" data-name="Слой 1" xmlns="http://www.w3.org/2000/svg" viewBox="0 0 369.12 512"><title>woman</title><g id="e2067552-2d3f-440b-89ed-3fa4aadca125" data-name="Capa 1"><path d="M346.74,366.81C340,333,308.28,327.25,308.18,327.2h0c-.34-.1,2.91.72-77.31-19.17h0v-2.66h59A22.12,22.12,0,0,0,312,283.26V170.56h0a27.7,27.7,0,0,0,0-12.74h0V117a7.74,7.74,0,0,0-7.31-7.85,7.52,7.52,0,0,0-7.7,7.32v21.65h-.05a38.7,38.7,0,0,0-13.28-4.86h0a19.56,19.56,0,0,0-16.48-15.06c-8.58-1.12-15.08-6.13-19.33-14.87a12.84,12.84,0,0,0-21.92-2c-12.9,17.55-48.74,56.91-110.64,56.9-4.71,0-7.9-.22-9-.27a19.83,19.83,0,0,0-21,18.63q0,.58,0,1.17v16c0,25.29,8.93,49.94,25.82,68.75A100.81,100.81,0,0,0,138.29,284h0v6.18H79.51A7.12,7.12,0,0,1,72.39,283V114.67C72.39,60,117,15,170.76,15h.52c19.29.11,41.55,5.58,56.72,14,9.62,5.31,15.55,1.09,25.05,1.09,23.17,0,41.75,23.83,44,45.26h0c0,.31.05,1.57.05,6.38,0,7.24,8.19,7.8,7.51,7.5a7.52,7.52,0,0,0,7.5-7.51c0-1.33,0-6.55-.12-7.77C308.94,44.08,283.49,15,253.05,15c-11.89,0-13.74,3-17.8.78C218.05,6.33,193,.12,171.37,0c-62.28-.4-114,51.48-114,114.67V283.18A22.12,22.12,0,0,0,79.49,305.3h58.75V308h0l-77,19.09-.3.08-5.63,1.66-.5.17c-10,3.75-27.61,13.64-32.43,37.78C-.45,481.49.51,476.6.45,477c-2.75,19.45,7,35,30.41,35h80.77a7.74,7.74,0,0,0,7.85-7.31,7.51,7.51,0,0,0-7.31-7.69H83.79V426.59a7.73,7.73,0,0,0-7.3-7.84,7.51,7.51,0,0,0-7.7,7.3V497H30.86c-10,0-15.75-3.21-15.84-13.68,0-5.1-.25-.13,22.07-113.58,3.36-16.82,15.57-23.85,22.73-26.57h0l5.2-1.53,44.22-11h0c49.2,58,46.28,54.89,49.13,57.66,16.42,16,39.86,14.89,55.29-3.22L260,330.73h0l44,10.92h0c1.3.59,23.22,4.45,27.94,28.1C354.06,482.22,354.05,478.2,354,483.33c0,10.24-5.53,13.67-15.75,13.67H300.68V426.59a7.73,7.73,0,0,0-7.31-7.84,7.51,7.51,0,0,0-7.69,7.31V497H147.33a7.73,7.73,0,0,0-7.85,7.3,7.51,7.51,0,0,0,7.3,7.7H338.26c18.53,0,30.67-10.2,30.85-28.56C369.17,474.86,368.66,479,346.74,366.81Zm-62.56-218c6.23,1.87,11,6,12.81,11.07h0v8.6c-1.77,5.08-6.58,9.2-12.81,11.06m-.05,0V148.85s0,0,.05,0Zm0,16.8V195h0a38.82,38.82,0,0,0,12.78-4.77m.06,0v93a7.12,7.12,0,0,1-7.12,7.12h-59v-5.74h0a99.31,99.31,0,0,0,53.28-88.27ZM127,257.45A86.69,86.69,0,0,1,100.26,195c.45-16.33-1.08-18.31,1.53-20.76a4.73,4.73,0,0,1,3.56-1.3c53.76,3.24,100-20.39,130.55-59.95H236c8.23,14.42,20.3,18.91,29.24,20.09a4.5,4.5,0,0,1,3.93,4.44V196.3C269.13,271,179.77,307.85,127,257.45Zm103,84.43c-1.94,2.4-6,7.56-6.92,8.19,0,0-.12.23-.13.23a16.81,16.81,0,0,1-1.49,1.77s.16,0-.25.57a19.33,19.33,0,0,1-1.43,2.28,22.37,22.37,0,0,1-2.67,3h0L202.27,375.4c-10.45,12.28-25.08,12.25-35.51-.06l-15.65-18.47-.69-.77c-.63-.7-.36-.47-.66-1.36-.31-.4-.16-.45-.79-1.37,0,0-.06-.18-.07-.19a4.23,4.23,0,0,1-1.42-1.52,11.7,11.7,0,0,1-2-2.38h0c-1-.64-1-1.18-1.81-2.33l-.34-.27a4.28,4.28,0,0,1-1.21-1.15,3.4,3.4,0,0,1-1-1c-1-.55-1.15-1.11-2.16-2l-.52-.64-12.85-15.17v-.06l22-5.45a7.57,7.57,0,0,0,5.69-7.36V290.66m.05,0a99.35,99.35,0,0,0,62.46.21h.05c.14,23.92-.32,23.38.41,25.49a7.5,7.5,0,0,0,5.28,4.8l22.16,5.5m0,.06L230,341.85Z" transform="translate(0 0)"/><polyline points="306.92 88.81 311.78 83.74 311.78 115.22 297.14 115.22 297.33 83.74"/></g></svg>