<svg xmlns="http://www.w3.org/2000/svg" viewBox="0 0 48.81 28.21">
  <defs>
    <style>
      .a {
        fill: none;
        stroke: #000;
        stroke-miterlimit: 22.93;
        stroke-width: 0.85px;
        fill-rule: evenodd;
      }
    </style>
  </defs>
  <title>stage2</title>
  <path class="a" d="M35.64,17.83l3.87-4.61h8.73a.53.53,0,0,0,.53-.53V1.6c0-.39-.32-.53-.67-.53H33.67c-.36,0-.67.14-.67.53V12.69a.53.53,0,0,0,.53.53h3.69m-.67,15.59c-.31-3.47-1.2-7.28-2.31-8.73-1.88-2.45-17-2.45-18.92,0-1.11,1.45-2,5.26-2.31,8.73m6.57-21c.24-2.61,2.59-3.92,5.2-3.92S29.73,5.23,30,7.84a14.17,14.17,0,0,1-.86,5.82,5.58,5.58,0,0,1-3.51,2.45,4.27,4.27,0,0,1-1.67,0,5.58,5.58,0,0,1-3.5-2.45,14.17,14.17,0,0,1-.86-5.82ZM18,17.87a1.77,1.77,0,0,0-1-1.28l-4-1.51-2.27,4.31h0l-.17-3.84H9.18L9,19.39H9L6.72,15.08l-4,1.51a1.77,1.77,0,0,0-1,1.28L.8,24.18M5.46,7.06c.41-4.31,8.11-4.31,8.52,0a11.67,11.67,0,0,1-.71,4.76,4.55,4.55,0,0,1-2.87,2,3.88,3.88,0,0,1-1.36,0,4.6,4.6,0,0,1-2.88-2,11.83,11.83,0,0,1-.7-4.76Zm31.9-.2h1.27m1.62,0h1.27m1.62,0H44.4" transform="translate(-0.38 -0.65)"/>
</svg>
