<svg xmlns="http://www.w3.org/2000/svg" viewBox="0 0 114.08 73.1">
  <defs>
    <style>
      .a {
        fill: none;
        stroke: #000;
        stroke-miterlimit: 22.93;
        stroke-width: 1.42px;
        fill-rule: evenodd;
      }
    </style>
  </defs>
  <title>stage1</title>
  <path class="a" d="M90.32,60.67l22.14,12.71H24.74L3.19,57.54h9.46l-.05.32L14,59.52l15.17,8.85,4.1-8.53-3.14-2H55.73m20.54,6.56H50l-5.73-5.26M29.35,67.59l6.28,2.5,5,.7,3.14-4.59-.57-1.8-3.78-3.2-6.27-.39m-9.87-14.5L23,53.4l7.12,4.46m7.8,0c.16-1.68.74-16.43.94-17.38,0-.21.13-.44,0-.62a6.32,6.32,0,0,1-1.14-1.47c-.07-.81.1-2.88.84-2.83a11.85,11.85,0,0,0,4.52,0c.73-.05.91,2,.83,2.83,0,.31-.93,1.24-1.13,1.47s-.07.41,0,.62c.2,1,.79,15.76,1,17.38ZM63.77,31.61H105.7l-7,27.55H84.75l1.83,7.31h5.56l4.38,3.34H74.93l-3.71-3.34H78.6l-1.84-7.31h-20l.43-1.69,6.58-25.86ZM60.52,56.86l5.64-22.15h35.6M29.7,16.37l-1.07.77a17.46,17.46,0,0,0,1.18,6.29l1.05.56.23.78c.88,3.07,4,7.15,7.36,8.51a14.5,14.5,0,0,0,4.74,0,11.76,11.76,0,0,0,3.66-2.58h1.39l1.6,2.62,10.74,4M48.67,28.5a13.21,13.21,0,0,0,1.88-3.73l.22-.78,1.06-.56A17.67,17.67,0,0,0,53,17.14l-.73-.52M12.6,57.86,14.7,43a5.73,5.73,0,0,1,3.68-4.59L31.8,33.31l2.06-3.64m18.42-13a23.29,23.29,0,0,0,0-6.35,9.24,9.24,0,0,0-5.08-7.54c-1.94-.67-5.66-1.52-8.38-.68a22.58,22.58,0,0,0-2.35,0,9,9,0,0,0-5.72,3.63,9.34,9.34,0,0,0-1.45,4.84,25.92,25.92,0,0,0,.23,5.94l1.53,1,.49,3,1.77.6c-.2-3-.53-9.82,2.22-7.94,5.68,3.86,12-2.83,13.1,1.21.45,2,0,5.54,0,6.25l1.75-.47.57-2.83,1.35-.73ZM43.5,28.21c-.1-.4-.49-1.19-.89-1.19H39c-1.3,0-1.3,2.61,0,2.61h3.58c.39,0,.67-.57.78-1l6.41,0a2.4,2.4,0,0,0,2.06-1.54,21,21,0,0,0,1-2.62M66.28,3.86H95.87V24.58H66.28V19.89l-7.4.43,7.4-3.68V3.86Zm3.87,6.26H91.77m-21.62,4.1H91.77M70.15,18.33H81" transform="translate(-1.03 -0.99)"/>
</svg>
